<svg width="16" height="16" viewBox="0 0 16 16" fill="none" xmlns="http://www.w3.org/2000/svg">
<path d="M8.00002 4.53332C7.91228 4.53282 7.82531 4.54963 7.74408 4.58281C7.66286 4.61599 7.58898 4.66487 7.52669 4.72666L3.52669 8.72666C3.46453 8.78882 3.41522 8.86261 3.38158 8.94382C3.34794 9.02504 3.33063 9.11208 3.33063 9.19999C3.33063 9.37753 3.40115 9.54779 3.52669 9.67332C3.65222 9.79886 3.82249 9.86938 4.00002 9.86938C4.17756 9.86938 4.34782 9.79886 4.47336 9.67332L8.00002 6.14666L11.5267 9.67332C11.5888 9.73548 11.6626 9.78479 11.7439 9.81843C11.8251 9.85207 11.9121 9.86938 12 9.86938C12.0879 9.86938 12.175 9.85207 12.2562 9.81843C12.3374 9.78479 12.4112 9.73548 12.4734 9.67332C12.5355 9.61116 12.5848 9.53737 12.6185 9.45616C12.6521 9.37494 12.6694 9.2879 12.6694 9.19999C12.6694 9.11208 12.6521 9.02504 12.6185 8.94382C12.5848 8.86261 12.5355 8.78882 12.4734 8.72666L8.47335 4.72666C8.41106 4.66487 8.33718 4.61599 8.25596 4.58281C8.17473 4.54963 8.08776 4.53282 8.00002 4.53332Z" fill="#A1A5B7"/>
</svg>
