<svg width="20" height="20" viewBox="0 0 20 20" fill="none" xmlns="http://www.w3.org/2000/svg">
<path d="M14.3667 6.54167L8.80001 12.1083L5.56668 8.87501C5.41054 8.7198 5.19933 8.63268 4.97918 8.63268C4.75903 8.63268 4.54782 8.7198 4.39168 8.87501C4.23647 9.03114 4.14935 9.24235 4.14935 9.46251C4.14935 9.68266 4.23647 9.89387 4.39168 10.05L8.21668 13.875C8.37282 14.0302 8.58402 14.1173 8.80418 14.1173C9.02433 14.1173 9.23555 14.0302 9.39168 13.875L15.5417 7.72501C15.6198 7.64754 15.6818 7.55537 15.7241 7.45382C15.7664 7.35227 15.7882 7.24335 15.7882 7.13334C15.7882 7.02333 15.7664 6.91441 15.7241 6.81286C15.6818 6.71131 15.6198 6.61914 15.5417 6.54167C15.3855 6.38646 15.1743 6.29935 14.9542 6.29935C14.734 6.29935 14.5228 6.38646 14.3667 6.54167Z" fill="white"/>
</svg>
