<svg width="20" height="20" viewBox="0 0 20 20" fill="none" xmlns="http://www.w3.org/2000/svg">
<path d="M11.175 10L14.1667 7.03333C14.3258 6.87199 14.4143 6.65404 14.4127 6.42744C14.4112 6.20083 14.3197 5.98413 14.1583 5.825C13.997 5.66587 13.779 5.57735 13.5524 5.57891C13.3258 5.58047 13.1091 5.67199 12.95 5.83333L9.99999 8.825L7.04999 5.89166C6.89386 5.73645 6.68265 5.64934 6.46249 5.64934C6.24234 5.64934 6.03113 5.73645 5.87499 5.89166C5.79689 5.96913 5.73489 6.0613 5.69258 6.16285C5.65028 6.2644 5.6285 6.37332 5.6285 6.48333C5.6285 6.59334 5.65028 6.70226 5.69258 6.80381C5.73489 6.90536 5.79689 6.99753 5.87499 7.075L8.82499 10L5.83333 12.9667C5.6742 13.128 5.58568 13.3459 5.58724 13.5726C5.5888 13.7992 5.68032 14.0159 5.84166 14.175C6.003 14.3341 6.22095 14.4226 6.44755 14.4211C6.67416 14.4195 6.89086 14.328 7.04999 14.1667L9.99999 11.175L12.95 14.1083C13.1061 14.2635 13.3173 14.3507 13.5375 14.3507C13.7576 14.3507 13.9689 14.2635 14.125 14.1083C14.2031 14.0309 14.2651 13.9387 14.3074 13.8371C14.3497 13.7356 14.3715 13.6267 14.3715 13.5167C14.3715 13.4067 14.3497 13.2977 14.3074 13.1962C14.2651 13.0946 14.2031 13.0025 14.125 12.925L11.175 10Z" fill="#A1A5B7"/>
</svg>
