<svg width="20" height="20" viewBox="0 0 20 20" fill="none" xmlns="http://www.w3.org/2000/svg">
<path d="M14.45 13.7333V8.23333C14.4478 7.53782 14.1705 6.87141 13.6787 6.37961C13.1869 5.8878 12.5205 5.61053 11.825 5.60833H4.325V4.9C4.32498 3.8766 4.7298 2.89475 5.45111 2.16876C6.17241 1.44277 7.15162 1.0316 8.175 1.025H15.0417C16.0694 1.025 17.055 1.43326 17.7817 2.15996C18.5084 2.88667 18.9167 3.87229 18.9167 4.9V9.9C18.9145 10.9191 18.511 11.8963 17.7935 12.62C17.0761 13.3438 16.1024 13.7557 15.0833 13.7667L14.45 13.7333ZM11.825 4.35833C12.8527 4.35833 13.8383 4.76659 14.565 5.4933C15.2917 6.22 15.7 7.20562 15.7 8.23333V12.4C16.2562 12.256 16.7499 11.9334 17.1051 11.4818C17.4604 11.0302 17.6576 10.4745 17.6667 9.9V4.9C17.6645 4.20448 17.3872 3.53808 16.8954 3.04627C16.4036 2.55447 15.7372 2.2772 15.0417 2.275H8.175C7.57161 2.27426 6.98651 2.48208 6.51877 2.86325C6.05103 3.24443 5.72939 3.77555 5.60833 4.36667L11.825 4.35833ZM8.39166 18.975C8.11941 18.9763 7.85097 18.911 7.60982 18.7846C7.36867 18.6582 7.16216 18.4746 7.00833 18.25L6.25833 17.1917C6.23235 17.1517 6.19641 17.1191 6.15404 17.0972C6.11167 17.0753 6.06433 17.0648 6.01667 17.0667H5C4.48763 17.0722 3.97926 16.976 3.5043 16.7837C3.02935 16.5915 2.59724 16.3069 2.23298 15.9465C1.86873 15.5862 1.57957 15.1571 1.38223 14.6843C1.1849 14.2114 1.0833 13.7041 1.08333 13.1917V8.23333C1.0833 7.72094 1.1849 7.21362 1.38223 6.74075C1.57957 6.26788 1.86873 5.83884 2.23298 5.47846C2.59724 5.11808 3.02935 4.83352 3.5043 4.64126C3.97926 4.44899 4.48763 4.35283 5 4.35833H11.8667C12.8944 4.35833 13.88 4.76659 14.6067 5.4933C15.3334 6.22 15.7417 7.20562 15.7417 8.23333V13.1917C15.7417 14.2194 15.3334 15.205 14.6067 15.9317C13.88 16.6584 12.8944 17.0667 11.8667 17.0667H10.7667C10.7191 17.0656 10.6721 17.0764 10.6298 17.0983C10.5876 17.1201 10.5516 17.1522 10.525 17.1917L9.775 18.25C9.62117 18.4746 9.41466 18.6582 9.17351 18.7846C8.93236 18.911 8.66392 18.9763 8.39166 18.975ZM5 5.60833C4.65209 5.60393 4.30676 5.66851 3.98395 5.79835C3.66115 5.9282 3.36728 6.12072 3.11932 6.36481C2.87137 6.60889 2.67424 6.89969 2.53933 7.22041C2.40442 7.54113 2.33441 7.8854 2.33333 8.23333V13.1917C2.33107 13.5413 2.39868 13.8879 2.53221 14.2111C2.66573 14.5342 2.86247 14.8275 3.11088 15.0735C3.35929 15.3196 3.65436 15.5136 3.97877 15.6441C4.30318 15.7745 4.65038 15.8389 5 15.8333H6.01667C6.26536 15.8321 6.51061 15.8914 6.73128 16.0061C6.95195 16.1208 7.14142 16.2874 7.28333 16.4917L8.025 17.5C8.06633 17.559 8.1212 17.6071 8.185 17.6405C8.2488 17.6738 8.31967 17.6914 8.39166 17.6917C8.46366 17.6914 8.53453 17.6738 8.59833 17.6405C8.66213 17.6071 8.717 17.559 8.75833 17.5L9.5 16.4417C9.64736 16.2466 9.83921 16.0897 10.0595 15.9839C10.2799 15.878 10.5223 15.8264 10.7667 15.8333H11.825C12.5212 15.8333 13.1889 15.5568 13.6812 15.0645C14.1734 14.5722 14.45 13.9045 14.45 13.2083V8.23333C14.4478 7.53782 14.1705 6.87141 13.6787 6.37961C13.1869 5.8878 12.5205 5.61053 11.825 5.60833H5ZM5.48333 10C5.3284 10 5.17695 10.0459 5.04814 10.132C4.91932 10.2181 4.81892 10.3404 4.75963 10.4836C4.70034 10.6267 4.68483 10.7842 4.71505 10.9362C4.74528 11.0881 4.81988 11.2277 4.92943 11.3372C5.03898 11.4468 5.17856 11.5214 5.33051 11.5516C5.48246 11.5818 5.63997 11.5663 5.7831 11.507C5.92624 11.4478 6.04858 11.3474 6.13465 11.2185C6.22072 11.0897 6.26667 10.9383 6.26667 10.7833C6.2645 10.5763 6.18127 10.3783 6.03484 10.2318C5.8884 10.0854 5.69041 10.0022 5.48333 10ZM8.4 10C8.24659 9.99705 8.0957 10.0392 7.96605 10.1213C7.83639 10.2033 7.73369 10.3216 7.67069 10.4615C7.60769 10.6014 7.58716 10.7568 7.61165 10.9082C7.63614 11.0597 7.70458 11.2006 7.80846 11.3136C7.91234 11.4265 8.0471 11.5064 8.196 11.5434C8.34491 11.5804 8.5014 11.5729 8.64606 11.5217C8.79072 11.4706 8.91717 11.3781 9.00972 11.2557C9.10227 11.1333 9.15684 10.9865 9.16667 10.8333C9.17227 10.728 9.15676 10.6226 9.12105 10.5233C9.08534 10.4241 9.03015 10.3329 8.95873 10.2553C8.8873 10.1777 8.80108 10.1151 8.70514 10.0713C8.60919 10.0274 8.50544 10.0032 8.4 10ZM11.3083 10C11.1534 10 11.002 10.0459 10.8731 10.132C10.7443 10.2181 10.6439 10.3404 10.5846 10.4836C10.5253 10.6267 10.5098 10.7842 10.54 10.9362C10.5703 11.0881 10.6449 11.2277 10.7544 11.3372C10.864 11.4468 11.0036 11.5214 11.1555 11.5516C11.3075 11.5818 11.465 11.5663 11.6081 11.507C11.7512 11.4478 11.8736 11.3474 11.9597 11.2185C12.0457 11.0897 12.0917 10.9383 12.0917 10.7833C12.0895 10.5763 12.0063 10.3783 11.8598 10.2318C11.7134 10.0854 11.5154 10.0022 11.3083 10Z" fill="#7E8299"/>
</svg>
