<svg width="20" height="20" viewBox="0 0 20 20" fill="none" xmlns="http://www.w3.org/2000/svg">
<path d="M11.175 10L14.1667 7.03336C14.3258 6.87202 14.4143 6.65407 14.4127 6.42747C14.4112 6.20086 14.3197 5.98416 14.1583 5.82503C13.997 5.6659 13.779 5.57738 13.5524 5.57894C13.3258 5.5805 13.1091 5.67202 12.95 5.83336L9.99999 8.82503L7.04999 5.89169C6.89386 5.73648 6.68265 5.64937 6.46249 5.64937C6.24234 5.64937 6.03113 5.73648 5.87499 5.89169C5.79689 5.96916 5.73489 6.06133 5.69258 6.16288C5.65028 6.26443 5.6285 6.37335 5.6285 6.48336C5.6285 6.59337 5.65028 6.70229 5.69258 6.80384C5.73489 6.90539 5.79689 6.99756 5.87499 7.07503L8.82499 10L5.83333 12.9667C5.6742 13.128 5.58568 13.346 5.58724 13.5726C5.5888 13.7992 5.68032 14.0159 5.84166 14.175C6.003 14.3342 6.22095 14.4227 6.44755 14.4211C6.67416 14.4196 6.89086 14.328 7.04999 14.1667L9.99999 11.175L12.95 14.1084C13.1061 14.2636 13.3173 14.3507 13.5375 14.3507C13.7576 14.3507 13.9689 14.2636 14.125 14.1084C14.2031 14.0309 14.2651 13.9387 14.3074 13.8372C14.3497 13.7356 14.3715 13.6267 14.3715 13.5167C14.3715 13.4067 14.3497 13.2978 14.3074 13.1962C14.2651 13.0947 14.2031 13.0025 14.125 12.925L11.175 10Z" fill="#A1A5B7"/>
</svg>
