<svg width="5" height="4" viewBox="0 0 5 4" fill="none" xmlns="http://www.w3.org/2000/svg">
<path d="M2.48224 3.66477C2.19579 3.66477 1.93419 3.59493 1.69744 3.45526C1.4607 3.31321 1.27131 3.12382 1.12926 2.88707C0.989583 2.65033 0.919744 2.38873 0.919744 2.10227C0.919744 1.81345 0.989583 1.55185 1.12926 1.31747C1.27131 1.08073 1.4607 0.892519 1.69744 0.752841C1.93419 0.610795 2.19579 0.539773 2.48224 0.539773C2.77107 0.539773 3.03267 0.610795 3.26705 0.752841C3.50379 0.892519 3.692 1.08073 3.83168 1.31747C3.97372 1.55185 4.04474 1.81345 4.04474 2.10227C4.04474 2.38873 3.97372 2.65033 3.83168 2.88707C3.692 3.12382 3.50379 3.31321 3.26705 3.45526C3.03267 3.59493 2.77107 3.66477 2.48224 3.66477Z" fill="#7E8299"/>
</svg>
