<svg width="20" height="20" viewBox="0 0 20 20" fill="none" xmlns="http://www.w3.org/2000/svg">
<path d="M15 10.8333H10.8333V15C10.8333 15.221 10.7455 15.433 10.5892 15.5893C10.433 15.7455 10.221 15.8333 9.99999 15.8333C9.77898 15.8333 9.56701 15.7455 9.41073 15.5893C9.25445 15.433 9.16666 15.221 9.16666 15V10.8333H4.99999C4.77898 10.8333 4.56701 10.7455 4.41073 10.5893C4.25445 10.433 4.16666 10.221 4.16666 10C4.16666 9.779 4.25445 9.56704 4.41073 9.41075C4.56701 9.25447 4.77898 9.16668 4.99999 9.16668H9.16666V5.00001C9.16666 4.779 9.25445 4.56703 9.41073 4.41075C9.56701 4.25447 9.77898 4.16668 9.99999 4.16668C10.221 4.16668 10.433 4.25447 10.5892 4.41075C10.7455 4.56703 10.8333 4.779 10.8333 5.00001V9.16668H15C15.221 9.16668 15.433 9.25447 15.5892 9.41075C15.7455 9.56704 15.8333 9.779 15.8333 10C15.8333 10.221 15.7455 10.433 15.5892 10.5893C15.433 10.7455 15.221 10.8333 15 10.8333Z" fill="#2884EF"/>
</svg>
