<svg width="46" height="46" viewBox="0 0 46 46" fill="none" xmlns="http://www.w3.org/2000/svg">
<path d="M33.7717 43.6041H12.2283C10.6525 43.6041 9.14122 42.9782 8.02694 41.8639C6.91266 40.7496 6.28667 39.2383 6.28667 37.6625V8.33748C6.28667 6.76165 6.91266 5.25037 8.02694 4.13609C9.14122 3.02181 10.6525 2.39581 12.2283 2.39581H25.4342C25.9546 2.39663 26.4698 2.50035 26.9501 2.701C27.4303 2.90165 27.8661 3.19528 28.2325 3.56498L38.5825 14.0491C39.3076 14.7848 39.7138 15.7763 39.7133 16.8091V37.6625C39.7133 39.2383 39.0873 40.7496 37.9731 41.8639C36.8588 42.9782 35.3475 43.6041 33.7717 43.6041ZM12.2283 5.27081C11.415 5.27081 10.635 5.59391 10.0599 6.16902C9.48476 6.74413 9.16167 7.52415 9.16167 8.33748V37.6625C9.16167 38.4758 9.48476 39.2558 10.0599 39.8309C10.635 40.4061 11.415 40.7291 12.2283 40.7291H33.7717C34.585 40.7291 35.365 40.4061 35.9401 39.8309C36.5152 39.2558 36.8383 38.4758 36.8383 37.6625V16.8091C36.8316 16.5307 36.7225 16.2645 36.5317 16.0616L26.1817 5.57748C26.0834 5.47972 25.9667 5.40231 25.8385 5.34969C25.7102 5.29707 25.5728 5.27026 25.4342 5.27081H12.2283Z" fill="#D8D8E5"/>
<path d="M38.2183 17.7292H31.855C29.8962 17.7292 28.0173 16.9523 26.6304 15.569C25.2434 14.1857 24.4617 12.3088 24.4567 10.35V3.83334C24.4555 3.63525 24.4958 3.4391 24.575 3.25754C24.6542 3.07598 24.7706 2.91302 24.9167 2.77918C25.0784 2.64111 25.2695 2.54174 25.4754 2.4886C25.6813 2.43546 25.8966 2.42996 26.105 2.47251C26.892 2.61196 27.6158 2.99394 28.175 3.56501L38.525 14.0492C39.0429 14.5784 39.4015 15.2425 39.56 15.9658C39.6062 16.1743 39.6047 16.3905 39.5557 16.5983C39.5066 16.8062 39.4113 17.0002 39.2768 17.1661C39.1423 17.3319 38.972 17.4652 38.7788 17.5561C38.5856 17.6469 38.3743 17.693 38.1608 17.6908L38.2183 17.7292ZM27.3317 6.74668V10.35C27.3367 11.5463 27.8155 12.692 28.6633 13.5361C29.511 14.3803 30.6587 14.8542 31.855 14.8542H35.3433L27.3317 6.74668Z" fill="#D8D8E5"/>
<path d="M31.1458 33.0433L27.1592 29.21C28.0604 27.9591 28.5495 26.4584 28.5583 24.9166C28.5771 23.2081 28.0246 21.5423 26.9885 20.1837C25.9525 18.825 24.4923 17.8514 22.8397 17.4173C21.1872 16.9833 19.437 17.1137 17.867 17.7879C16.2971 18.4621 14.9973 19.6414 14.174 21.1386C13.3508 22.6358 13.0513 24.3651 13.3231 26.0519C13.5948 27.7388 14.4223 29.2865 15.6741 30.4494C16.9259 31.6123 18.5302 32.3237 20.2325 32.4707C21.9348 32.6177 23.6374 32.1919 25.07 31.2608L29.1717 35.0941C29.4393 35.3521 29.7966 35.4964 30.1683 35.4966C30.3638 35.4988 30.5574 35.4588 30.736 35.3794C30.9146 35.3001 31.074 35.1831 31.2033 35.0366C31.4534 34.7615 31.5872 34.4001 31.5764 34.0284C31.5657 33.6567 31.4114 33.3036 31.1458 33.0433ZM16.33 24.9166C16.3301 23.995 16.6026 23.0939 17.1131 22.3266C17.6237 21.5592 18.3496 20.9599 19.1997 20.6038C20.0498 20.2477 20.9862 20.1507 21.8912 20.325C22.7962 20.4993 23.6296 20.9372 24.2866 21.5836C24.9436 22.23 25.3949 23.0561 25.5839 23.9582C25.7729 24.8603 25.6912 25.7981 25.349 26.6538C25.0067 27.5096 24.4192 28.2452 23.6603 28.7682C22.9014 29.2911 22.0049 29.5782 21.0833 29.5933C20.4635 29.6009 19.8482 29.4857 19.2731 29.2543C18.698 29.0229 18.1743 28.6799 17.7324 28.2452C17.2905 27.8104 16.9391 27.2924 16.6984 26.7211C16.4577 26.1499 16.3325 25.5366 16.33 24.9166Z" fill="#D8D8E5"/>
</svg>
